<svg width="19" height="19" viewBox="0 0 19 19" fill="none" xmlns="http://www.w3.org/2000/svg">
<path fill-rule="evenodd" clip-rule="evenodd" d="M10.3746 10.4481L17.8746 2.2981C17.9686 2.19984 18.0185 2.06755 18.0128 1.93171C18.0072 1.79587 17.9464 1.6682 17.8446 1.5781L16.4046 0.138095C16.2115 -0.0460318 15.9078 -0.0460318 15.7146 0.138095L7.56461 7.6381C7.46684 7.73234 7.4116 7.8623 7.4116 7.9981C7.4116 8.1339 7.46684 8.26385 7.56461 8.3581L9.65461 10.4481C9.74886 10.5459 9.87881 10.6011 10.0146 10.6011C10.1504 10.6011 10.2804 10.5459 10.3746 10.4481ZM6.08461 9.3381L8.69461 11.9581C8.85843 12.1084 8.96751 12.3089 9.00461 12.5281V13.0181C9.00811 14.0827 8.58703 15.1049 7.83461 15.8581C6.25801 17.3803 4.11124 18.1649 1.92461 18.0181C1.28115 18.0211 0.65495 17.81 0.144615 17.4181C-0.0226471 17.2491 -0.047736 16.9856 0.0846147 16.7881C0.845495 15.6562 0.91149 14.5728 0.974718 13.5348C1.04611 12.3628 1.11397 11.2487 2.17461 10.1881C2.9254 9.43814 3.94343 9.01726 5.00461 9.0181C5.16779 9.00785 5.33144 9.00785 5.49461 9.0181C5.72004 9.06005 5.9265 9.17203 6.08461 9.3381Z" fill="#393F78"/>
</svg>
