<svg width="19" height="19" viewBox="0 0 19 19" fill="none" xmlns="http://www.w3.org/2000/svg">
<path fill-rule="evenodd" clip-rule="evenodd" d="M1.00303 19C1.08403 19 1.16503 18.99 1.24503 18.97L5.24503 17.97C5.42103 17.926 5.58203 17.835 5.71003 17.707L18.003 5.41401C18.381 5.03601 18.589 4.53401 18.589 4.00001C18.589 3.46601 18.381 2.96401 18.003 2.58601L16.417 1.00001C15.661 0.244014 14.345 0.244014 13.589 1.00001L1.29603 13.293C1.1681 13.4211 1.07722 13.5814 1.03303 13.757L0.0330345 17.757C-0.0418131 18.0558 0.0252053 18.3724 0.2147 18.6152C0.404195 18.8581 0.69502 19 1.00303 19ZM15.003 2.41401L16.589 4.00001L15.003 5.58601L13.417 4.00001L15.003 2.41401ZM12.003 5.41401L2.90603 14.511L2.37703 16.625L4.49103 16.097L13.589 7.00001L12.003 5.41401Z" fill="#393F78"/>
</svg>
