<svg width="19" height="19" viewBox="0 0 19 19" fill="none" xmlns="http://www.w3.org/2000/svg">
<path fill-rule="evenodd" clip-rule="evenodd" d="M6.172 17.707C6.55 18.085 7.052 18.293 7.586 18.293C8.12 18.293 8.622 18.085 9 17.707L16 10.707L15.293 10L7.586 2.293L5.293 0L3.879 1.414L6.172 3.707L0.586 9.293C0.208 9.671 0 10.173 0 10.707C0 11.241 0.208 11.743 0.586 12.121L6.172 17.707ZM16.586 11.707C16.494 11.771 14.586 13.79 14.586 15.207C14.586 16.701 15.535 17.655 16.586 17.707C17.492 17.751 18.586 16.816 18.586 15.207C18.586 13.707 16.678 11.771 16.586 11.707ZM13.172 10.707L7.586 5.121L2 10.707H13.172Z" fill="#393F78"/>
</svg>
