<svg width="112" height="112" viewBox="0 0 112 112" fill="none" xmlns="http://www.w3.org/2000/svg">
<g filter="url(#filter0_d)">
<rect x="32" y="15" width="48" height="48" rx="14" fill="url(#paint0_linear)"/>
</g>
<path d="M50.6933 33.469C49.5217 32.2975 49.5217 30.398 50.6933 29.2264L53.6159 26.3038C54.7874 25.1322 56.6869 25.1322 57.8585 26.3038L67.9464 36.3916C69.1179 37.5632 69.1179 39.4627 67.9463 40.6343L65.0238 43.5569C63.8522 44.7284 61.9527 44.7284 60.7811 43.5569L50.6933 33.469Z" fill="white"/>
<path d="M47.3162 35.2092C46.6687 34.5617 45.6189 34.5616 44.9714 35.2091V35.2091C43.6762 36.5041 43.6762 38.6034 44.9714 39.8984L47.3163 42.2447L44.9714 44.5894C43.6762 45.8844 43.6762 47.9837 44.9714 49.2787C46.2665 50.5738 48.366 50.5738 49.6612 49.2787L52.0061 46.9341L54.351 49.2787C55.6461 50.5738 57.7456 50.5738 59.0408 49.2787V49.2787C59.6883 48.6313 59.6883 47.5815 59.0409 46.934L47.3162 35.2092Z" fill="white"/>
<defs>
<filter id="filter0_d" x="0" y="0" width="112" height="112" filterUnits="userSpaceOnUse" color-interpolation-filters="sRGB">
<feFlood flood-opacity="0" result="BackgroundImageFix"/>
<feColorMatrix in="SourceAlpha" type="matrix" values="0 0 0 0 0 0 0 0 0 0 0 0 0 0 0 0 0 0 127 0"/>
<feOffset dy="17"/>
<feGaussianBlur stdDeviation="16"/>
<feColorMatrix type="matrix" values="0 0 0 0 0.282353 0 0 0 0 0.321569 0 0 0 0 0.694118 0 0 0 0.432692 0"/>
<feBlend mode="normal" in2="BackgroundImageFix" result="effect1_dropShadow"/>
<feBlend mode="normal" in="SourceGraphic" in2="effect1_dropShadow" result="shape"/>
</filter>
<linearGradient id="paint0_linear" x1="14.8688" y1="39.3574" x2="55.8577" y2="82.0939" gradientUnits="userSpaceOnUse">
<stop stop-color="#8A4AE3"/>
<stop offset="1" stop-color="#4852B1"/>
</linearGradient>
</defs>
</svg>
