<svg width="20" height="21" viewBox="0 0 20 21" fill="none" xmlns="http://www.w3.org/2000/svg">
<path fill-rule="evenodd" clip-rule="evenodd" d="M15.1 19.89C15.2424 19.9629 15.4001 20.0006 15.56 20C15.7809 20.0102 15.999 19.9469 16.18 19.82C16.4968 19.5931 16.6529 19.2028 16.58 18.82L15.58 13.19L19.7 9.18999C19.962 8.92859 20.0581 8.5439 19.95 8.18999C19.8318 7.82741 19.5176 7.56366 19.14 7.50999L13.44 6.67999L10.9 1.55999C10.7329 1.215 10.3834 0.99588 10 0.99588C9.61671 0.99588 9.26712 1.215 9.10003 1.55999L6.59003 6.68999L0.890032 7.51999C0.512455 7.57366 0.198277 7.83741 0.0800325 8.19999C-0.0280831 8.5539 0.0680887 8.93859 0.330032 9.19999L4.45003 13.2L3.45003 18.83C3.38327 19.2058 3.53629 19.5869 3.84446 19.8122C4.15263 20.0375 4.56217 20.0677 4.90003 19.89L10 17.22L15.1 19.89ZM10.46 15.21C10.3189 15.1339 10.1603 15.0959 10 15.1C9.83288 15.0668 9.65978 15.0806 9.50003 15.14L5.73003 17.14L6.45003 12.98C6.50675 12.6536 6.39815 12.3203 6.16003 12.09L3.16003 9.15999L7.36003 8.53999C7.6832 8.49324 7.96319 8.29165 8.11003 7.99999L10 4.24999L11.89 7.99999C12.024 8.28911 12.2877 8.4971 12.6 8.55999L16.8 9.17999L13.8 12.11C13.5619 12.3403 13.4533 12.6736 13.51 13L14.23 17.21L10.46 15.21Z" fill="#393F78"/>
</svg>
