<svg width="17" height="18" viewBox="0 0 17 18" fill="none" xmlns="http://www.w3.org/2000/svg">
<path fill-rule="evenodd" clip-rule="evenodd" d="M15.6202 4.11622H11.5117V2.74397C11.4716 1.64872 10.5528 0.792434 9.45743 0.8294H6.99231C5.89695 0.792434 4.97818 1.64872 4.93805 2.74397V4.11622H0.829518C0.375703 4.11622 0.0078125 4.48411 0.0078125 4.93793C0.0078125 5.39174 0.375703 5.75963 0.829518 5.75963H1.65122V14.7984C1.65122 16.1598 2.75489 17.2635 4.11634 17.2635H12.3334C13.6948 17.2635 14.7985 16.1598 14.7985 14.7984V5.75963H15.6202C16.074 5.75963 16.4419 5.39174 16.4419 4.93793C16.4419 4.48411 16.074 4.11622 15.6202 4.11622ZM6.58146 2.74397C6.58146 2.6125 6.75401 2.47281 6.99231 2.47281H9.45742C9.69572 2.47281 9.86828 2.6125 9.86828 2.74397V4.11622H6.58146V2.74397ZM12.3334 15.6201C12.7872 15.6201 13.1551 15.2522 13.1551 14.7984V5.75963H3.29463V14.7984C3.29463 15.2522 3.66252 15.6201 4.11634 15.6201H12.3334Z" fill="#393F78"/>
<path d="M5.75969 13.155C6.21351 13.155 6.5814 12.7871 6.5814 12.3333V9.04644C6.5814 8.59262 6.21351 8.22473 5.75969 8.22473C5.30588 8.22473 4.93799 8.59262 4.93799 9.04644V12.3333C4.93799 12.7871 5.30588 13.155 5.75969 13.155Z" fill="#393F78"/>
<path d="M10.69 13.155C11.1438 13.155 11.5117 12.7871 11.5117 12.3333V9.04644C11.5117 8.59262 11.1438 8.22473 10.69 8.22473C10.2362 8.22473 9.86829 8.59262 9.86829 9.04644V12.3333C9.86829 12.7871 10.2362 13.155 10.69 13.155Z" fill="#393F78"/>
</svg>
