<svg width="18" height="8" viewBox="0 0 18 8" fill="none" xmlns="http://www.w3.org/2000/svg">
<path d="M17.2636 6.88967C17.2728 7.00421 17.2336 7.11736 17.1555 7.20168C17.0775 7.28599 16.9677 7.33376 16.8528 7.33339H15.6202C15.4101 7.33409 15.2347 7.17306 15.2176 6.96362C14.9793 4.64641 12.4977 2.81401 9.46563 2.81401C7.9098 2.78792 6.39636 3.32156 5.20098 4.31773L7.27168 6.38843C7.35192 6.46573 7.39655 6.57283 7.39493 6.68424V6.92254C7.39493 7.14945 7.21099 7.33339 6.98408 7.33339H1.23214C1.00523 7.33339 0.821289 7.14945 0.821289 6.92254V1.1706C0.821267 1.0602 0.865679 0.954429 0.944516 0.877138C1.02335 0.799848 1.12998 0.757539 1.24036 0.759747H1.47865C1.59007 0.758131 1.69716 0.802756 1.77447 0.883002L3.76299 2.87153C5.35214 1.47875 7.4021 0.726127 9.51493 0.759747C13.607 0.759747 16.9925 3.46316 17.2636 6.88967Z" fill="#393F78"/>
</svg>
